# xmcd
#
# Track frame offsets:
#	150
#	15958
#	40395
#	52048
#	80310
#	100645
#	111658
#	122603
#	157290
#	179863
#	190410
#	210135
#
# Disc length: 2968 seconds
#
# Revision: 0
# Processed by: cddbd v1.5.2PL0 Copyright (c) Steve Scherf et al.
# Submitted via: EasyCDDAExtractor 16.0.6.1
#
DISCID=a20b960c
DTITLE=Συλλογικός δίσκος - Κρήτη μου όμορφο νησί 3
DYEAR=1900
DGENRE=Κρητική
TTITLE0=Σκουλάς Βασίλης - Είχα μιά μικρή αγάπη [Κ. Μουντάκης]
TTITLE1=Βακάκης Δημήτρης - Μέσα στο γλυκοχάραμα [Δημ. Βακάκης-Βασ. Βομβολάκης]
TTITLE2=Βακάκης Δημήτρης - Μεταξοδερματένια μου [Δημ. Βακάκης-Βασ. Βομβολάκης]
TTITLE3=Πυροβολάκης Μανώλης - Στερνή μου αγάπη [Μαν. Πυροβολάκης]
TTITLE4=Κορνηλάκης Διονύσης - Μπροστά στο γέλιο σου θεά [Βασ. Παπατσάρας-Διον.
TTITLE4=Κορνηλάκης]
TTITLE5=Βακάκης Δημήτρης - Δε θέλω φως μου, να σκεφτώ [Δημ. Βακάκης-Βασ. Βομβο
TTITLE5=λάκης]
TTITLE6=Σταυριανουδάκης Κυριάκος - Νύχτα πλανεύτρα του μυαλού [Κυρ. Σταυριανου
TTITLE6=δάκης]
TTITLE7=Δερέμπεη Ειρήνη - Εποστειρώξαν τα νερά [Ζ. Σπυριδάκης-Σ. Νικάκης-Θ. Ρη
TTITLE7=γινιώτης]
TTITLE8=Χατζιδάκις Νεκτάριος - Το δάκρυ μου [Νεκ. Χατζιδάκις-Μαν. Χνάρης]
TTITLE9=Σταυριανουδάκης Κυριάκος - Αρχοντομαθημένη μου [Κυρ. Σταυριανουδάκης-Β
TTITLE9=ασ. Βομβολάκης]
TTITLE10=Σπυριδάκης Ζαχαρίας - Κι α τζι στερούμαι τσι χαρές [Ζ. Σπυριδάκης-Σ. 
TTITLE10=Νικάκης]
TTITLE11=Γαργανουράκης Χαράλαμπος - Άστρα μη με μαλώνετε [Λ. Καμπουράκης]
EXTD=
EXTT0=
EXTT1=
EXTT2=
EXTT3=
EXTT4=
EXTT5=
EXTT6=
EXTT7=
EXTT8=
EXTT9=
EXTT10=
EXTT11=
PLAYORDER=
